<svg width="119" height="27" viewBox="0 0 119 27" fill="none" xmlns="http://www.w3.org/2000/svg">
<path d="M115.077 20.5529C114.581 20.5529 114.115 20.4852 113.679 20.3499C113.258 20.2146 112.889 20.0567 112.573 19.8763V21.6355C112.573 22.1768 112.551 22.6505 112.506 23.0564C112.461 23.4775 112.438 23.7932 112.438 24.0037C112.438 24.1541 112.491 24.2669 112.596 24.3421C112.716 24.4323 113.002 24.5977 113.453 24.8383L113.182 25.4472C112.22 25.0864 111.476 24.7556 110.95 24.4548C110.438 24.1691 110.183 23.906 110.183 23.6654C110.183 23.4549 110.205 23.1241 110.25 22.673C110.311 22.237 110.341 21.8084 110.341 21.3874V13.8542C110.341 13.5685 110.348 13.1926 110.363 12.7265C110.393 12.2603 110.446 11.8619 110.521 11.5311H109.687L108.514 9.97481L108.672 9.61394H110.792C110.852 9.61394 110.98 9.71919 111.175 9.9297C111.371 10.1252 111.574 10.3507 111.784 10.6063C112.01 10.2605 112.333 9.98233 112.754 9.77182C113.19 9.56131 113.656 9.45605 114.152 9.45605H114.581C114.912 9.45605 115.273 9.59138 115.663 9.86204C116.054 10.1177 116.423 10.4409 116.769 10.8319C117.114 11.2078 117.4 11.5837 117.626 11.9596C117.851 12.3355 117.964 12.6438 117.964 12.8843C117.964 13.3054 117.957 13.8993 117.941 14.6662C117.926 15.418 117.919 16.3126 117.919 17.3501C117.919 18.3275 117.663 19.1094 117.152 19.6958C116.641 20.2672 115.949 20.5529 115.077 20.5529ZM115.122 11.5536C114.37 11.5536 113.769 11.6664 113.318 11.8919C112.867 12.1025 112.619 12.5385 112.573 13.2001C112.573 13.3655 112.573 13.5084 112.573 13.6286V18.5906C112.844 18.6508 113.13 18.6809 113.431 18.6809C114.243 18.6809 114.821 18.4929 115.167 18.117C115.513 17.7411 115.686 17.2148 115.686 16.5382C115.686 16.057 115.694 15.5533 115.709 15.027C115.724 14.5008 115.731 14.0046 115.731 13.5384C115.746 13.0723 115.754 12.6889 115.754 12.3881C115.754 12.1776 115.724 11.9897 115.663 11.8243C115.603 11.6438 115.423 11.5536 115.122 11.5536Z" fill="#303535"/>
<path d="M104.815 20.6429C104.454 20.6429 104.018 20.5527 103.506 20.3723C102.995 20.1918 102.499 19.9513 102.018 19.6505C101.537 19.3498 101.131 19.004 100.8 18.613C100.484 18.2221 100.326 17.8236 100.326 17.4176C100.326 17.2372 100.349 16.7109 100.394 15.8388C100.454 14.9667 100.484 13.8766 100.484 12.5684C100.484 11.5158 100.792 10.7415 101.409 10.2453C102.025 9.74908 102.95 9.50098 104.183 9.50098C104.544 9.50098 104.942 9.61375 105.378 9.83929C105.829 10.0648 106.258 10.358 106.664 10.7189C107.07 11.0798 107.401 11.4632 107.656 11.8692C107.927 12.2601 108.062 12.6285 108.062 12.9744C108.062 13.5458 108.047 14.1622 108.017 14.8238C108.002 15.4854 107.995 16.335 107.995 17.3725C107.995 18.3348 107.732 19.1243 107.205 19.7407C106.679 20.3422 105.882 20.6429 104.815 20.6429ZM103.371 18.7258C104.198 18.7258 104.799 18.5529 105.175 18.207C105.566 17.8612 105.762 17.35 105.762 16.6733C105.762 16.1922 105.769 15.6508 105.784 15.0494C105.799 14.4329 105.814 13.869 105.829 13.3578C105.845 12.8315 105.852 12.4631 105.852 12.2526C105.852 11.997 105.807 11.8091 105.717 11.6888C105.626 11.5534 105.446 11.4858 105.175 11.4858C104.363 11.4858 103.739 11.6286 103.303 11.9143C102.882 12.185 102.672 12.7037 102.672 13.4706C102.672 14.9141 102.657 16.0042 102.627 16.741C102.597 17.4627 102.582 17.9514 102.582 18.207C102.582 18.5529 102.845 18.7258 103.371 18.7258Z" fill="#303535"/>
<path d="M93.6386 20.7559C92.6763 20.395 91.932 20.0717 91.4057 19.786C90.8945 19.4853 90.6389 19.2146 90.6389 18.9741C90.6389 18.7636 90.6614 18.4403 90.7065 18.0042C90.7667 17.5531 90.7967 17.1171 90.7967 16.6961V10.6514C90.7967 9.74926 90.8268 8.92226 90.887 8.17044C90.9621 7.40358 91.0524 6.79461 91.1576 6.34352H90.1878L88.9473 4.87747L89.1051 4.5166H92.0372L93.368 6.23075C93.2627 6.78709 93.18 7.4111 93.1199 8.10277C93.0597 8.77941 93.0296 9.48612 93.0296 10.2229C93.2702 9.98232 93.5634 9.79437 93.9093 9.65904C94.2701 9.52371 94.646 9.45605 95.037 9.45605C95.3678 9.45605 95.7211 9.57634 96.0971 9.81692C96.473 10.0575 96.8263 10.3507 97.1571 10.6965C97.503 11.0424 97.7811 11.3882 97.9916 11.7341C98.2172 12.0649 98.33 12.3355 98.33 12.546C98.33 12.9219 98.3149 13.3881 98.2849 13.9444C98.2548 14.5007 98.2397 14.9518 98.2397 15.2977V16.9442C98.2397 17.4855 98.2172 17.9666 98.1721 18.3876C98.127 18.7936 98.1044 19.1019 98.1044 19.3124C98.1044 19.4627 98.157 19.583 98.2623 19.6733C98.3826 19.7484 98.6683 19.9063 99.1194 20.1469L98.8487 20.7559C97.8864 20.395 97.1421 20.0717 96.6158 19.786C96.1046 19.4853 95.849 19.2146 95.849 18.9741C95.849 18.7636 95.8715 18.4403 95.9166 18.0042C95.9768 17.5531 96.0068 17.1171 96.0068 16.6961V15.5232C96.0068 15.0421 96.0219 14.4932 96.0519 13.8767C96.082 13.2602 96.0971 12.7189 96.0971 12.2528C96.0971 11.9521 96.0595 11.7491 95.9843 11.6438C95.9091 11.5386 95.7437 11.486 95.4881 11.486C94.646 11.486 94.022 11.704 93.6161 12.14C93.2251 12.5611 93.0296 13.1475 93.0296 13.8993V16.9442C93.0296 17.4855 93.0071 17.9666 92.962 18.3876C92.9169 18.7936 92.8943 19.1019 92.8943 19.3124C92.8943 19.4627 92.9469 19.583 93.0522 19.6733C93.1725 19.7484 93.4582 19.9063 93.9093 20.1469L93.6386 20.7559Z" fill="#303535"/>
<path d="M85.4928 20.5754C84.2749 20.5754 83.29 20.1695 82.5382 19.3575C81.7864 18.5455 81.23 17.3201 80.8691 15.6811L81.636 15.4781C81.9818 16.3051 82.3653 16.9216 82.7863 17.3276C83.2223 17.7185 83.7862 17.914 84.4779 17.914C85.0493 17.914 85.5605 17.7862 86.0116 17.5306C86.4627 17.275 86.816 16.9291 87.0716 16.4931C87.3423 16.042 87.4776 15.5458 87.4776 15.0045C87.4776 14.4331 87.3122 14.1474 86.9814 14.1474C86.7258 14.1474 86.41 14.1925 86.0341 14.2827C85.6733 14.3729 85.3124 14.4632 84.9515 14.5534C84.5906 14.6436 84.2974 14.6887 84.0719 14.6887C83.7712 14.6887 83.4554 14.5459 83.1246 14.2602C82.7938 13.9594 82.4856 13.5685 82.1999 13.0873C81.9142 12.5911 81.6811 12.0649 81.5007 11.5085C81.3353 10.9371 81.2526 10.3808 81.2526 9.83948C81.2526 8.63657 81.5759 7.72687 82.2224 7.11038C82.884 6.47885 83.7787 6.16309 84.9064 6.16309C86.8311 6.16309 88.1242 7.40359 88.7858 9.88459L88.0189 10.0876C87.7783 9.57634 87.4475 9.20795 87.0265 8.9824C86.6055 8.75686 86.1319 8.64409 85.6056 8.64409C84.7786 8.64409 84.132 8.86963 83.6659 9.32072C83.2148 9.77181 82.9893 10.4259 82.9893 11.283C82.9893 11.5687 83.0344 11.7716 83.1246 11.8919C83.2298 12.0122 83.3426 12.0724 83.4629 12.0724C83.7636 12.0724 84.1095 12.0122 84.5004 11.8919C84.9064 11.7716 85.2974 11.6589 85.6733 11.5536C86.0642 11.4333 86.38 11.3732 86.6206 11.3732C86.9363 11.3732 87.2746 11.5912 87.6355 12.0273C87.9964 12.4483 88.3046 13.0197 88.5602 13.7414C88.8309 14.4632 88.9662 15.2601 88.9662 16.1322C88.9662 17.5306 88.6881 18.6207 88.1317 19.4026C87.5754 20.1845 86.6957 20.5754 85.4928 20.5754Z" fill="#303535"/>
<path d="M74.0928 20.5979C73.7319 20.5979 73.2884 20.5077 72.7621 20.3273C72.2358 20.1318 71.7095 19.8837 71.1833 19.583C70.672 19.2672 70.2435 18.9289 69.8977 18.568C69.5518 18.1921 69.3789 17.8237 69.3789 17.4628C69.3789 17.102 69.4015 16.4779 69.4466 15.5908C69.5067 14.7037 69.5368 13.6436 69.5368 12.4106C69.5368 10.4559 70.6044 9.47852 72.7395 9.47852C73.0703 9.47852 73.4538 9.58377 73.8898 9.79428C74.3259 9.98975 74.7469 10.2529 75.1529 10.5837C75.5589 10.8995 75.8972 11.2303 76.1678 11.5761C76.4385 11.9219 76.5738 12.2452 76.5738 12.5459V14.3954C76.5738 15.6134 75.8972 16.2223 74.5439 16.2223C74.1229 16.2223 73.6417 16.1998 73.1004 16.1547C72.5591 16.0945 72.0779 16.0269 71.6569 15.9517C71.6419 16.4479 71.6268 16.899 71.6118 17.3049C71.6118 17.6959 71.6118 17.9214 71.6118 17.9816C71.6118 18.2222 71.672 18.3951 71.7922 18.5003C71.9125 18.6056 72.1306 18.6582 72.4463 18.6582C72.9125 18.6582 73.4162 18.5906 73.9575 18.4552C74.5138 18.3049 75.01 18.0868 75.4461 17.8011H75.7844L77.0023 19.6506C76.7167 19.9213 76.2881 20.1468 75.7167 20.3273C75.1604 20.5077 74.6191 20.5979 74.0928 20.5979ZM71.7246 13.1324C71.7246 13.2526 71.7171 13.4331 71.702 13.6737C71.702 13.9142 71.702 14.1849 71.702 14.4856C72.1381 14.5307 72.6418 14.5533 73.2132 14.5533C73.6492 14.5533 73.95 14.448 74.1154 14.2375C74.2958 14.012 74.386 13.6737 74.386 13.2226V12.0046C74.386 11.8392 74.3409 11.6964 74.2507 11.5761C74.1605 11.4558 73.965 11.3957 73.6643 11.3957C73.0628 11.3957 72.5892 11.5235 72.2433 11.7791C71.8975 12.0197 71.7246 12.4708 71.7246 13.1324Z" fill="#303535"/>
<path d="M61.0692 20.8236C60.1671 20.5078 59.4378 20.1921 58.8814 19.8763C58.3251 19.5605 58.0469 19.2824 58.0469 19.0418C58.0469 18.8313 58.077 18.523 58.1371 18.117C58.1973 17.7111 58.2274 17.2976 58.2274 16.8765V14.0121C58.2274 13.4407 58.2424 12.9671 58.2725 12.5912C58.3025 12.2002 58.3627 11.8469 58.4529 11.5311H57.438L56.1523 9.9974L56.3102 9.61397H58.9491C58.6183 9.31324 58.3627 8.95237 58.1823 8.53135C58.0018 8.11033 57.9116 7.68931 57.9116 7.2683C57.9116 6.51648 58.1447 5.93006 58.6108 5.50904C59.0769 5.07299 59.7385 4.85496 60.5956 4.85496C60.9565 4.85496 61.2948 4.90759 61.6105 5.01284L62.8059 6.70443L62.5804 6.99764C62.2195 6.90742 61.8586 6.86231 61.4978 6.86231C60.9264 6.86231 60.4979 6.99012 60.2122 7.24574C59.9265 7.48632 59.7836 7.82464 59.7836 8.2607C59.7836 8.81704 59.949 9.26813 60.2798 9.61397H64.475C64.2494 9.35835 64.0314 9.03507 63.8209 8.64413C63.6254 8.23814 63.5277 7.78705 63.5277 7.29085C63.5277 6.55407 63.7683 5.9451 64.2494 5.46393C64.7306 4.98277 65.4824 4.74219 66.5049 4.74219C67.0612 4.74219 67.5424 4.83241 67.9484 5.01284L69.0084 6.81721L68.7603 7.11042C68.61 7.06531 68.407 7.02771 68.1514 6.99764C67.9108 6.95253 67.6101 6.92998 67.2492 6.92998C66.6628 6.92998 66.2042 7.04275 65.8734 7.2683C65.5426 7.49384 65.3772 7.8472 65.3772 8.32836C65.3772 8.8396 65.5426 9.26813 65.8734 9.61397H67.9033L69.0987 11.1928L68.8957 11.5311H66.3019C66.1966 11.8168 66.129 12.1852 66.0989 12.6363C66.0688 13.0723 66.0538 13.6061 66.0538 14.2377V17.1246C66.0538 17.6659 66.0312 18.1246 65.9861 18.5005C65.941 18.8764 65.9185 19.1696 65.9185 19.3801C65.9185 19.5305 65.9786 19.6583 66.0989 19.7635C66.2192 19.8537 66.5124 20.0041 66.9785 20.2146L66.6628 20.8236C65.7606 20.5078 65.0313 20.1921 64.475 19.8763C63.9186 19.5605 63.6405 19.2824 63.6405 19.0418C63.6405 18.8313 63.6705 18.523 63.7307 18.117C63.7908 17.7111 63.8209 17.2976 63.8209 16.8765V14.0121C63.8209 13.4407 63.8359 12.9671 63.866 12.5912C63.8961 12.2002 63.9562 11.8469 64.0464 11.5311H60.7084C60.6031 11.8168 60.5354 12.1852 60.5054 12.6363C60.4753 13.0723 60.4603 13.6061 60.4603 14.2377V17.1246C60.4603 17.6659 60.4377 18.1246 60.3926 18.5005C60.3475 18.8764 60.3249 19.1696 60.3249 19.3801C60.3249 19.5305 60.3851 19.6583 60.5054 19.7635C60.6257 19.8537 60.9189 20.0041 61.385 20.2146L61.0692 20.8236Z" fill="#303535"/>
<path d="M52.5919 20.6429C52.231 20.6429 51.7949 20.5527 51.2837 20.3723C50.7725 20.1918 50.2763 19.9513 49.7951 19.6505C49.3139 19.3498 48.908 19.004 48.5772 18.613C48.2614 18.2221 48.1035 17.8236 48.1035 17.4176C48.1035 17.2372 48.1261 16.7109 48.1712 15.8388C48.2313 14.9667 48.2614 13.8766 48.2614 12.5684C48.2614 11.5158 48.5696 10.7415 49.1861 10.2453C49.8026 9.74908 50.7274 9.50098 51.9603 9.50098C52.3212 9.50098 52.7197 9.61375 53.1557 9.83929C53.6068 10.0648 54.0354 10.358 54.4413 10.7189C54.8473 11.0798 55.1781 11.4632 55.4337 11.8692C55.7044 12.2601 55.8397 12.6285 55.8397 12.9744C55.8397 13.5458 55.8247 14.1622 55.7946 14.8238C55.7796 15.4854 55.7721 16.335 55.7721 17.3725C55.7721 18.3348 55.5089 19.1243 54.9827 19.7407C54.4564 20.3422 53.6595 20.6429 52.5919 20.6429ZM51.1484 18.7258C51.9754 18.7258 52.5768 18.5529 52.9527 18.207C53.3437 17.8612 53.5392 17.35 53.5392 16.6733C53.5392 16.1922 53.5467 15.6508 53.5617 15.0494C53.5768 14.4329 53.5918 13.869 53.6068 13.3578C53.6219 12.8315 53.6294 12.4631 53.6294 12.2526C53.6294 11.997 53.5843 11.8091 53.4941 11.6888C53.4038 11.5534 53.2234 11.4858 52.9527 11.4858C52.1408 11.4858 51.5168 11.6286 51.0807 11.9143C50.6597 12.185 50.4492 12.7037 50.4492 13.4706C50.4492 14.9141 50.4342 16.0042 50.4041 16.741C50.374 17.4627 50.359 17.9514 50.359 18.207C50.359 18.5529 50.6221 18.7258 51.1484 18.7258Z" fill="#303535"/>
<path d="M43.9526 20.5755C43.5316 20.5755 43.0354 20.4778 42.464 20.2823C41.8926 20.0718 41.3288 19.8087 40.7724 19.4929C40.2311 19.1772 39.78 18.8464 39.4191 18.5005C39.0733 18.1547 38.9004 17.8389 38.9004 17.5532C38.9004 17.1623 38.9229 16.6661 38.9681 16.0646C39.0282 15.4481 39.0583 14.8016 39.0583 14.1249V10.223C39.0583 8.74943 39.359 7.70441 39.9605 7.08792C40.5769 6.45639 41.4265 6.14062 42.5091 6.14062C42.9602 6.14062 43.4188 6.26092 43.8849 6.5015C44.3661 6.74208 44.8097 7.04281 45.2157 7.40368C45.6367 7.76455 45.975 8.14046 46.2306 8.53141C46.4862 8.92235 46.614 9.26819 46.614 9.56892C46.614 9.91475 46.5915 10.3057 46.5464 10.7418C46.5013 11.1628 46.4261 11.5537 46.3208 11.9146L44.0879 11.3958C44.1481 11.035 44.2007 10.6515 44.2458 10.2456C44.306 9.83957 44.336 9.41855 44.336 8.9825C44.336 8.4863 44.0729 8.2382 43.5466 8.2382C42.885 8.2382 42.3588 8.42615 41.9678 8.80206C41.5769 9.16293 41.3814 9.78694 41.3814 10.6741V15.0271C41.3814 15.7789 41.3588 16.3804 41.3137 16.8315C41.2837 17.2826 41.2686 17.5983 41.2686 17.7788C41.2686 18.305 41.5393 18.5682 42.0806 18.5682C42.7873 18.5682 43.3662 18.4028 43.8173 18.072C44.2684 17.7412 44.6593 17.2149 44.9901 16.4932H45.2608L47.1328 17.5758C46.817 18.5381 46.381 19.2824 45.8246 19.8087C45.2833 20.3199 44.6593 20.5755 43.9526 20.5755Z" fill="#303535"/>
<path fill-rule="evenodd" clip-rule="evenodd" d="M15.2113 11.1684C15.3145 9.11318 16.1283 6.76589 18.3502 4.54399C22.934 -0.0397749 26.8878 1.64747 28.2917 3.06406C28.2285 4.78425 27.0472 8.28535 22.8277 8.5282C19.4821 8.72075 17.6648 11.8999 16.8728 14.438C17.7466 17.4824 16.8303 20.2242 15.9733 21.5564C15.6065 19.09 13.818 14.0965 9.59857 13.8537C5.37912 13.6108 4.19777 10.1097 4.13453 8.38954C5.53847 6.97295 9.4923 5.28571 14.0761 9.86947C14.5054 10.2988 14.8821 10.7327 15.2113 11.1684ZM29.6952 4.54399C30.7073 6.4159 31.7904 11.1008 28.0261 14.865C23.3208 19.5704 19.3368 19.2665 17.5534 17.4831C17.6166 15.4214 18.8207 11.2146 23.1313 10.8807C27.4418 10.5468 29.3033 6.51709 29.6952 4.54399ZM2.73103 9.86947C1.71896 11.7414 0.635893 16.4263 4.40015 20.1905C9.10546 24.8958 13.0895 24.592 14.8729 22.8086C14.8097 20.7469 13.6055 16.5401 9.29502 16.2062C4.98449 15.8722 3.12297 11.8426 2.73103 9.86947Z" fill="#BC957E"/>
</svg>
